<?xml version="1.0" encoding="UTF-8"?>
<svg id="Layer_1" data-name="Layer 1" xmlns="http://www.w3.org/2000/svg" viewBox="0 0 210.22 210.22">
  <defs>
    <style>
      .cls-1 {
        fill: #9c93dc;
        stroke: #9c93dc;
        stroke-miterlimit: 10;
        stroke-width: 4px;
      }
    </style>
  </defs>
  <path class="cls-1" d="M105.11,2C48.26,2,2,48.26,2,105.11s46.26,103.11,103.11,103.11,103.11-46.26,103.11-103.11S161.97,2,105.11,2ZM105.11,201.57c-53.19,0-96.46-43.27-96.46-96.46S51.93,8.66,105.11,8.66s96.46,43.27,96.46,96.46-43.27,96.46-96.46,96.46Z"/>
  <path class="cls-1" d="M47.77,99.29s0-.09.01-.14c.14-1.36.33-2.7.56-4.02.03-.17.06-.33.09-.5.13-.72.28-1.43.44-2.13.03-.15.06-.29.1-.44.09-.39.18-.77.28-1.15.05-.18.09-.36.14-.54.19-.72.4-1.44.61-2.15.03-.1.06-.19.09-.29,7.33-23.42,29.22-40.46,55.02-40.46,1.84,0,3.33-1.49,3.33-3.33s-1.49-3.33-3.33-3.33c-17.61,0-33.58,7.12-45.2,18.62-.09.07-.18.13-.26.21-7.54,7.54-12.89,16.61-15.92,26.31-.03.08-.05.17-.08.25-.26.83-.49,1.66-.71,2.5-.05.18-.09.35-.14.53-.11.44-.22.88-.33,1.33-.03.11-.05.22-.07.33-.19.85-.37,1.71-.53,2.56-.03.16-.06.32-.09.48-.27,1.52-.48,3.04-.64,4.57,0,.02,0,.04,0,.06-1.21,11.87.87,24.13,6.49,35.36.58,1.17,1.76,1.84,2.98,1.84.5,0,1.01-.11,1.49-.35,1.64-.82,2.31-2.82,1.49-4.46-4.1-8.2-6.1-17.01-6.12-25.75,0-.03,0-.06,0-.09,0-1.96.1-3.91.29-5.82Z"/>
  <path class="cls-1" d="M156.86,130.47c-.28.56-.56,1.12-.86,1.68-.16.3-.33.61-.5.91-.16.3-.33.59-.5.88-9.98,17.21-28.61,28.81-49.9,28.81-1.84,0-3.33,1.49-3.33,3.33s1.49,3.33,3.33,3.33c17.6,0,33.58-7.11,45.2-18.62.09-.07.18-.13.26-.22,4.04-4.04,7.43-8.52,10.19-13.3.2-.35.4-.7.59-1.05.17-.31.35-.63.52-.95.33-.63.66-1.26.97-1.9.01-.03.03-.06.04-.09,4.17-8.52,6.52-18.08,6.52-28.18,0-.15-.01-.3-.03-.45-.07-10.88-2.87-21.81-8.57-31.7-.92-1.59-2.95-2.14-4.55-1.22-1.59.92-2.14,2.95-1.22,4.55,9.76,16.91,10.08,37.22,1.88,54.08-.02.03-.03.06-.05.1Z"/>
  <path class="cls-1" d="M180.9,139.27c.22-.49.44-.99.65-1.49.1-.24.2-.47.3-.71.11-.26.21-.52.32-.78.18-.45.37-.91.54-1.37,0-.02.01-.04.02-.06,3.55-9.24,5.51-19.27,5.51-29.75,0-.17-.02-.33-.04-.49-.11-19.52-6.99-38.27-19.58-53.16-1.19-1.4-3.29-1.58-4.69-.39-1.4,1.19-1.58,3.29-.39,4.69,12.33,14.57,18.7,33.17,17.95,52.36-.35,8.96-2.25,17.66-5.54,25.79-.07.16-.13.32-.2.49-.12.29-.24.58-.37.87-.17.39-.33.77-.51,1.16-.04.08-.07.16-.11.24-12.04,26.48-38.73,44.93-69.66,44.93-1.84,0-3.33,1.49-3.33,3.33s1.49,3.33,3.33,3.33c22.76,0,43.42-9.2,58.44-24.07.12-.09.23-.17.34-.28,7.18-7.18,12.9-15.51,16.98-24.58,0-.02.01-.03.02-.05Z"/>
  <path class="cls-1" d="M135.77,105.11c0-16.9-13.75-30.66-30.66-30.66s-30.66,13.75-30.66,30.66,13.75,30.66,30.66,30.66,30.66-13.75,30.66-30.66ZM81.11,105.11c0-13.23,10.77-24,24-24s24,10.77,24,24-10.77,24-24,24-24-10.77-24-24Z"/>
</svg>