<?xml version="1.0" encoding="UTF-8"?>
<svg id="Layer_1" data-name="Layer 1" xmlns="http://www.w3.org/2000/svg" viewBox="0 0 148.4 250.32">
  <defs>
    <style>
      .cls-1 {
        fill: #b8b2e6;
        stroke: #b8b2e6;
        stroke-miterlimit: 10;
        stroke-width: 4px;
      }
    </style>
  </defs>
  <path class="cls-1" d="M74.23,185.32c16.51,0,32.54-7.7,42.88-20.6,6.1-7.61,9.73-14.95,10.81-21.81,1.02-6.54,1.12-13.31,1.22-19.87.03-1.94.06-3.87.11-5.77.46-16.66.23-33.92-.02-48.79-.02-1.02-.03-2.03-.04-3.04-.13-10.41-.27-21.18-5.11-31.61C115.1,14.5,95.54,2,74.23,2s-40.62,12.34-49.66,31.44c-4.93,10.42-5.01,20.55-5.08,31.29,0,1.1-.02,2.2-.03,3.31l-.51,41.48c-.22,18.17-.47,38.77,12.03,54.73,10.34,13.19,26.51,21.07,43.25,21.07ZM74.23,9.64c18.35,0,35.19,10.76,42.91,27.41.37.79.69,1.6,1,2.4h-20.45c-2.11,0-3.82,1.71-3.82,3.82s1.71,3.82,3.82,3.82h22.57c1.11,5.93,1.19,12.08,1.27,18.45.01,1.02.03,2.04.04,3.07,0,.48.02.97.02,1.45h-24.36c-2.11,0-3.82,1.71-3.82,3.82s1.71,3.82,3.82,3.82h24.48c.1,7.37.17,15.13.13,22.97h-24.31c-2.11,0-3.82,1.71-3.82,3.82s1.71,3.82,3.82,3.82h24.24c-.04,2.92-.1,5.84-.18,8.74-.05,1.93-.08,3.89-.11,5.87-.04,2.77-.09,5.58-.2,8.37h-23.59c-2.11,0-3.82,1.71-3.82,3.82s1.71,3.82,3.82,3.82h23.03c-.11.94-.23,1.87-.37,2.79-.85,5.45-4.04,11.75-9.22,18.21-8.9,11.11-22.7,17.74-36.91,17.74s-28.33-6.78-37.23-18.14c-4.81-6.13-7.43-13.15-8.86-20.6h22.59c2.11,0,3.82-1.71,3.82-3.82s-1.71-3.82-3.82-3.82h-23.65c-.66-7.09-.57-14.44-.49-21.68v-.75h23.99c2.11,0,3.82-1.71,3.82-3.82s-1.71-3.82-3.82-3.82h-23.89l.27-22.42h23.31c2.11,0,3.82-1.71,3.82-3.82s-1.71-3.82-3.82-3.82h-23.22l.04-3.02c.01-1.12.02-2.24.03-3.35.04-5.7.08-10.97.83-16.05h22.78c2.11,0,3.82-1.71,3.82-3.82s-1.71-3.82-3.82-3.82h-21c.49-1.46,1.05-2.92,1.74-4.38,7.79-16.44,24.57-27.07,42.75-27.07Z"/>
  <path class="cls-1" d="M142.57,89.23c-2.11,0-3.82,1.71-3.82,3.82v40.28c0,16.81-6.7,32.56-18.88,44.34-12.17,11.78-28.4,18.27-45.71,18.27s-33.52-6.49-45.68-18.27c-12.16-11.78-18.85-27.53-18.85-44.34v-40.28c0-2.11-1.71-3.82-3.82-3.82s-3.82,1.71-3.82,3.82v40.28c0,18.9,7.52,36.6,21.17,49.83,12.99,12.59,30.12,19.77,48.47,20.37v24.98c-11.47.45-22.18,2.92-30.49,7.07-3.57,1.79-6.61,3.84-9.02,6.11-1.54,1.44-1.62,3.86-.17,5.4,1.44,1.54,3.86,1.62,5.4.17,1.88-1.76,4.3-3.39,7.21-4.85,8.19-4.09,19.16-6.35,30.89-6.35s22.7,2.25,30.89,6.35c2.91,1.45,5.33,3.08,7.21,4.85.74.69,1.68,1.03,2.61,1.03,1.02,0,2.04-.4,2.79-1.21,1.44-1.54,1.37-3.96-.17-5.4-2.42-2.27-5.45-4.32-9.02-6.11-8.31-4.16-19.02-6.62-30.49-7.07v-25.11c17.37-1.17,33.51-8.25,45.9-20.24,13.68-13.24,21.21-30.93,21.21-49.83v-40.28c0-2.11-1.71-3.82-3.82-3.82Z"/>
</svg>