<?xml version="1.0" encoding="UTF-8"?>
<svg id="Layer_1" data-name="Layer 1" xmlns="http://www.w3.org/2000/svg" viewBox="0 0 201.25 223.54">
  <defs>
    <style>
      .cls-1 {
        fill: #9c93dc;
      }
    </style>
  </defs>
  <path class="cls-1" d="M91.21,150.41h18.77c7.85,0,14.21,6.36,14.21,14.21v44.71c0,7.85,6.36,14.21,14.21,14.21h48.63c7.85,0,14.21-6.36,14.21-14.21v-121.28c0-4.18-1.84-8.15-5.03-10.85L108.92,3.36c-5.33-4.51-13.14-4.48-18.43.07L4.95,76.86c-3.14,2.7-4.95,6.64-4.95,10.78v121.69c0,7.85,6.36,14.21,14.21,14.21h48.58c7.85,0,14.21-6.36,14.21-14.21v-44.71c0-7.85,6.36-14.21,14.21-14.21ZM51.65,212.4h-26.3c-7.85,0-14.21-6.36-14.21-14.21v-105.43c0-4.14,1.81-8.08,4.95-10.78L90.54,18.07c5.29-4.55,13.11-4.57,18.43-.07l76.1,64.37c3.19,2.7,5.03,6.67,5.03,10.85v104.97c0,7.85-6.36,14.21-14.21,14.21h-26.35c-7.85,0-14.21-6.36-14.21-14.21v-44.71c0-7.85-6.36-14.21-14.21-14.21h-41.06c-7.85,0-14.21,6.36-14.21,14.21v44.71c0,7.85-6.36,14.21-14.21,14.21Z"/>
</svg>