<?xml version="1.0" encoding="UTF-8"?>
<svg id="Layer_1" data-name="Layer 1" xmlns="http://www.w3.org/2000/svg" viewBox="0 0 166.8 184.15">
  <defs>
    <style>
      .cls-1 {
        fill: #9c93dc;
      }
    </style>
  </defs>
  <path class="cls-1" d="M83.4,93.27c25.72,0,46.62-20.93,46.62-46.62S109.12,0,83.4,0s-46.62,20.93-46.62,46.62,20.93,46.62,46.62,46.62h0v.02h0ZM83.4,11.68c19.27,0,34.94,15.67,34.94,34.94s-15.67,34.94-34.94,34.94-34.94-15.67-34.94-34.94,15.67-34.94,34.94-34.94Z"/>
  <path class="cls-1" d="M165.98,164.51c-5.44-16.96-16.27-32.17-30.61-42.91-15.1-11.32-33.05-17.31-51.97-17.31s-36.87,5.99-51.97,17.31c-14.31,10.74-25.14,25.95-30.61,42.91-1.43,4.47-1.06,9.5,1.59,13.37s7.12,6.27,11.92,6.27h138.1c4.79,0,9.17-2.3,11.92-6.27s3.04-8.87,1.59-13.37h.05,0ZM154.66,171.33c-.3.41-1.01,1.13-2.21,1.13H14.35c-1.2,0-1.91-.69-2.21-1.13-.3-.41-.76-1.29-.41-2.44,9.75-31.64,38.53-52.89,71.68-52.89s61.95,21.25,71.68,52.89c.35,1.15-.12,2.03-.41,2.44h-.02Z"/>
</svg>